<svg width="31" height="31" viewBox="0 0 31 31" fill="none" xmlns="http://www.w3.org/2000/svg">
<path d="M20.076 26.9345C20.4275 26.5829 20.625 26.1061 20.6251 25.6089C20.6251 25.1117 20.4277 24.6349 20.0762 24.2832L10.7959 15.0011L20.0781 5.72074C20.4197 5.36714 20.6087 4.89353 20.6045 4.40191C20.6002 3.9103 20.4031 3.44 20.0555 3.09233C19.7079 2.74465 19.2376 2.54741 18.746 2.54309C18.2544 2.53877 17.7808 2.72771 17.4271 3.06922L6.81915 13.675C6.46761 14.0266 6.2701 14.5034 6.27005 15.0006C6.27 15.4978 6.46742 15.9746 6.81889 16.3263L17.4247 26.9342C17.7763 27.2858 18.2531 27.4833 18.7503 27.4833C19.2475 27.4834 19.7243 27.286 20.076 26.9345Z" fill="#F2785C"/>
</svg>
